<svg width="12" height="10" viewBox="0 0 12 10" fill="none" xmlns="http://www.w3.org/2000/svg">
<path d="M10.6154 1.30436H9.01731L8.23269 0.19567C8.19094 0.135051 8.13363 0.0853392 8.06606 0.0511383C7.99849 0.0169374 7.92286 -0.000645624 7.84615 1.81179e-05H4.15385C4.07714 -0.000645624 4.00151 0.0169374 3.93394 0.0511383C3.86637 0.0853392 3.80906 0.135051 3.76731 0.19567L2.98269 1.30436H1.38462C1.01786 1.30579 0.66656 1.44368 0.407222 1.68798C0.147885 1.93228 0.00151867 2.26322 0 2.60871V8.69565C0.00151867 9.04115 0.147885 9.37208 0.407222 9.61639C0.66656 9.86069 1.01786 9.99857 1.38462 10H10.6154C10.9821 9.99857 11.3334 9.86069 11.5928 9.61639C11.8521 9.37208 11.9985 9.04115 12 8.69565V2.60871C11.9985 2.26322 11.8521 1.93228 11.5928 1.68798C11.3334 1.44368 10.9821 1.30579 10.6154 1.30436ZM11.0769 8.69565C11.0769 8.81097 11.0283 8.92155 10.9417 9.00309C10.8552 9.08463 10.7378 9.13044 10.6154 9.13044H1.38462C1.26221 9.13044 1.14481 9.08463 1.05826 9.00309C0.971703 8.92155 0.923077 8.81097 0.923077 8.69565V2.60871C0.923077 2.4934 0.971703 2.38281 1.05826 2.30127C1.14481 2.21973 1.26221 2.17393 1.38462 2.17393H3.23077C3.30747 2.17459 3.38311 2.15701 3.45068 2.12281C3.51825 2.08861 3.57556 2.03889 3.61731 1.97828L4.40192 0.869582H7.59808L8.38269 1.97828C8.42444 2.03889 8.48175 2.08861 8.54932 2.12281C8.61689 2.15701 8.69253 2.17459 8.76923 2.17393H10.6154C10.7378 2.17393 10.8552 2.21973 10.9417 2.30127C11.0283 2.38281 11.0769 2.4934 11.0769 2.60871V8.69565ZM6 3.04349C5.49794 3.04349 5.00715 3.18374 4.58971 3.4465C4.17226 3.70926 3.8469 4.08273 3.65477 4.51968C3.46264 4.95663 3.41237 5.43744 3.51031 5.90131C3.60826 6.36518 3.85003 6.79127 4.20504 7.1257C4.56005 7.46012 5.01236 7.68787 5.50477 7.78014C5.99718 7.87241 6.50758 7.82506 6.97143 7.64406C7.43527 7.46307 7.83172 7.15657 8.11065 6.76333C8.38958 6.37008 8.53846 5.90775 8.53846 5.43479C8.53846 4.80058 8.27102 4.19234 7.79496 3.74389C7.31891 3.29543 6.67324 3.04349 6 3.04349ZM6 6.95653C5.68051 6.95653 5.36819 6.86728 5.10254 6.70007C4.83689 6.53286 4.62984 6.2952 4.50758 6.01713C4.38531 5.73907 4.35332 5.4331 4.41565 5.13791C4.47798 4.84273 4.63183 4.57158 4.85775 4.35876C5.08367 4.14594 5.3715 4.00101 5.68485 3.94229C5.99821 3.88358 6.32301 3.91371 6.61818 4.02889C6.91335 4.14407 7.16564 4.33911 7.34314 4.58936C7.52064 4.83961 7.61538 5.13382 7.61538 5.43479C7.61386 5.83794 7.44318 6.22417 7.14057 6.50924C6.83796 6.79431 6.42796 6.9551 6 6.95653Z" fill="#B3B4BE"/>
</svg>
