<svg width="12" height="12" viewBox="0 0 12 12" fill="none" xmlns="http://www.w3.org/2000/svg">
<path fill-rule="evenodd" clip-rule="evenodd" d="M12 10.5V1.5C12 0.947715 11.5523 0.5 11 0.5H1C0.447715 0.5 0 0.947716 0 1.5V10.5C0 11.0523 0.447715 11.5 1 11.5H11C11.5523 11.5 12 11.0523 12 10.5ZM8.5 3C7.94772 3 7.5 3.44772 7.5 4C7.5 4.55228 7.94772 5 8.5 5C9.05229 5 9.5 4.55228 9.5 4C9.5 3.44772 9.05229 3 8.5 3ZM9.20306 8.00602C9.06564 8.02952 8.93271 8.11869 8.86219 8.19278L8.84892 8.20673L6.3024 10.5H11V9.62395L9.63784 8.19278C9.45092 7.9964 9.30509 7.98857 9.20306 8.00602ZM6.79199 8.7145L4.63861 6.3458C4.45328 6.16327 4.28089 6.09288 4.14167 6.08707C4.0102 6.08159 3.82708 6.13001 3.60354 6.35355C3.31483 6.64226 2.70025 7.31798 2.11485 7.96633L1.76056 8.35915C1.44953 8.7042 1.17139 9.01277 0.999987 9.19847V10.5L4.80812 10.5L6.79199 8.7145Z" fill="#B3B4BE"/>
</svg>
