<svg width="12" height="12" viewBox="0 0 12 12" fill="none" xmlns="http://www.w3.org/2000/svg">
<path fill-rule="evenodd" clip-rule="evenodd" d="M11 1.5V8.17344L10.3622 7.50334C9.94912 7.06934 9.46996 6.94584 9.03448 7.02032C8.64522 7.0869 8.33453 7.30266 8.1527 7.48797L7.53452 8.04467L5.36198 5.65489L5.35356 5.64647C5.04187 5.33479 4.64215 5.10709 4.18333 5.08797C3.71479 5.06844 3.27292 5.27002 2.89646 5.64647C2.58517 5.95777 1.94975 6.65705 1.37265 7.2962L1 7.70933V1.5H11ZM6.79142 8.71387L4.80805 10.5H1.00001V9.1985C1.17139 9.01283 1.44948 8.70431 1.76044 8.35933L1.76058 8.35918L2.11487 7.96636C2.70028 7.318 3.31485 6.64229 3.60356 6.35358C3.82711 6.13004 4.01023 6.08162 4.14169 6.0871C4.28092 6.0929 4.4533 6.16329 4.63864 6.34583L6.79142 8.71387ZM1.50001 11.5H1C0.447715 11.5 0 11.0523 0 10.5V1.5C0 0.947716 0.447715 0.5 1 0.5H11C11.5523 0.5 12 0.947715 12 1.5V9.22409L12 9.22412L12 10L12 10.0015V10.5C12 11.0523 11.5523 11.5 11 11.5H5.19188H1.50001ZM6.30301 10.5H11V9.62391L9.63785 8.19277C9.45093 7.99639 9.30509 7.98856 9.20307 8.00601C9.06564 8.02951 8.93272 8.11868 8.8622 8.19277L8.84892 8.20672L8.2072 8.78462L8.20801 8.7855L6.30301 10.5ZM8 4.00001C8 3.72387 8.22386 3.50001 8.5 3.50001C8.77614 3.50001 9 3.72387 9 4.00001C9 4.27615 8.77614 4.50001 8.5 4.50001C8.22386 4.50001 8 4.27615 8 4.00001ZM8.5 2.50001C7.67157 2.50001 7 3.17158 7 4.00001C7 4.82844 7.67157 5.50001 8.5 5.50001C9.32843 5.50001 10 4.82844 10 4.00001C10 3.17158 9.32843 2.50001 8.5 2.50001Z"/>
</svg>
