<svg width="10" height="12" viewBox="0 0 10 12" fill="none" xmlns="http://www.w3.org/2000/svg">
<path fill-rule="evenodd" clip-rule="evenodd" d="M8.75128 4.59714C8.75128 5.92755 8.16 7.26092 7.35403 8.44505C6.58831 9.57006 5.68314 10.4807 5.09714 11.016C4.51114 10.4807 3.60597 9.57007 2.84024 8.44505C2.03428 7.26092 1.443 5.92755 1.443 4.59714C1.443 2.57902 3.07902 0.943003 5.09714 0.943003C7.11526 0.943003 8.75128 2.57902 8.75128 4.59714ZM9.69428 4.59714C9.69428 7.79495 6.87899 10.6799 5.65468 11.7834C5.33422 12.0722 4.86006 12.0722 4.5396 11.7834C3.31529 10.6799 0.5 7.79495 0.5 4.59714C0.5 2.05821 2.55821 0 5.09714 0C7.63607 0 9.69428 2.05821 9.69428 4.59714ZM4.03626 4.59714C4.03626 4.01123 4.51123 3.53626 5.09714 3.53626C5.68305 3.53626 6.15802 4.01123 6.15802 4.59714C6.15802 5.18305 5.68305 5.65802 5.09714 5.65802C4.51123 5.65802 4.03626 5.18305 4.03626 4.59714ZM5.09714 2.59326C3.99043 2.59326 3.09326 3.49043 3.09326 4.59714C3.09326 5.70385 3.99043 6.60102 5.09714 6.60102C6.20385 6.60102 7.10102 5.70385 7.10102 4.59714C7.10102 3.49043 6.20385 2.59326 5.09714 2.59326Z"/>
</svg>
