<svg width="10" height="12" viewBox="0 0 10 12" fill="none" xmlns="http://www.w3.org/2000/svg">
<path fill-rule="evenodd" clip-rule="evenodd" d="M9.69428 4.59714C9.69428 7.79495 6.87899 10.6799 5.65468 11.7834C5.33422 12.0722 4.86006 12.0722 4.5396 11.7834C3.31529 10.6799 0.5 7.79495 0.5 4.59714C0.5 2.05821 2.55821 0 5.09714 0C7.63607 0 9.69428 2.05821 9.69428 4.59714ZM5.09714 2.59326C3.99043 2.59326 3.09326 3.49043 3.09326 4.59714C3.09326 5.70385 3.99043 6.60102 5.09714 6.60102C6.20385 6.60102 7.10102 5.70385 7.10102 4.59714C7.10102 3.49043 6.20385 2.59326 5.09714 2.59326Z" fill="#B3B4BE"/>
</svg>
