<svg width="11" height="12" viewBox="0 0 11 12" fill="none" xmlns="http://www.w3.org/2000/svg">
<path fill-rule="evenodd" clip-rule="evenodd" d="M7.2 2.88C7.2 3.94039 6.34039 4.8 5.28 4.8C4.21961 4.8 3.36 3.94039 3.36 2.88C3.36 1.81961 4.21961 0.96 5.28 0.96C6.34039 0.96 7.2 1.81961 7.2 2.88ZM8.16 2.88C8.16 4.47058 6.87058 5.76 5.28 5.76C3.68942 5.76 2.4 4.47058 2.4 2.88C2.4 1.28942 3.68942 0 5.28 0C6.87058 0 8.16 1.28942 8.16 2.88ZM9.58081 11.04H0.979195C1.08256 9.77721 1.59442 8.86516 2.29653 8.24926C3.09471 7.5491 4.176 7.2 5.28 7.2C6.384 7.2 7.46529 7.5491 8.26347 8.24927C8.96558 8.86516 9.47744 9.77721 9.58081 11.04ZM5.28 6.24C3.984 6.24 2.66529 6.64879 1.66347 7.52758C0.651599 8.41518 0 9.75066 0 11.52C0 11.7851 0.214903 12 0.48 12H10.08C10.3451 12 10.56 11.7851 10.56 11.52C10.56 9.75066 9.9084 8.41518 8.89653 7.52758C7.89471 6.64879 6.576 6.24 5.28 6.24Z" fill="#B3B4BE"/>
</svg>
