<svg width="11" height="12" viewBox="0 0 11 12" fill="none" xmlns="http://www.w3.org/2000/svg">
<path fill-rule="evenodd" clip-rule="evenodd" d="M8.16 2.88C8.16 4.47058 6.87058 5.76 5.28 5.76C3.68942 5.76 2.4 4.47058 2.4 2.88C2.4 1.28942 3.68942 0 5.28 0C6.87058 0 8.16 1.28942 8.16 2.88ZM5.28 6.24C3.984 6.24 2.66529 6.64879 1.66347 7.52758C0.651599 8.41518 0 9.75066 0 11.52C0 11.7851 0.214903 12 0.48 12H10.08C10.3451 12 10.56 11.7851 10.56 11.52C10.56 9.75066 9.9084 8.41518 8.89653 7.52758C7.89471 6.64879 6.576 6.24 5.28 6.24Z"/>
</svg>
